<svg width="16" height="16" viewBox="0 0 16 16" fill="none" xmlns="http://www.w3.org/2000/svg">
<path d="M3.31078 16.0002H12.6883C14.5177 16.0002 16.0001 14.5179 16.0001 12.6885V3.31176C16.0001 1.48235 14.5177 0 12.6883 0H3.31078C1.48137 0 -0.000976562 1.48235 -0.000976562 3.31176V12.6893C-0.000976563 14.5179 1.48137 16.0002 3.31078 16.0002Z" fill="#00CDC8"/>
<path d="M3.767 6.34452L5.68878 6.37474L5.85454 5.93789C6.74291 3.59998 8.328 2.99219 9.62732 2.99219C10.8818 2.99219 11.7244 3.44371 11.7244 4.09121C11.7244 4.7439 11.0164 5.09009 10.6754 5.09009C10.1134 5.09009 10.4596 3.68545 9.53149 3.68545C8.88399 3.68545 8.29692 4.36748 7.77546 5.71774L7.50956 6.40495L9.65235 6.42999C10.6158 6.44467 10.9413 6.77101 10.9016 7.33304C11.2728 6.77619 11.7943 6.38941 12.3814 6.38941C12.8527 6.38941 13.1938 6.61993 13.1938 7.02656C13.1938 7.52298 12.6015 8.10055 12.2303 8.10055C11.8737 8.10055 11.9393 7.59377 11.6078 7.59377C11.3523 7.59377 11.171 7.8191 11.0104 8.24127L10.5286 9.52074C10.2429 10.2831 9.29925 10.6094 8.82787 10.6094C8.40138 10.6094 8.467 10.3236 8.54729 10.113L9.52544 7.49881C9.62041 7.24326 9.53062 7.0775 9.24486 7.08699L7.22724 7.13707L5.48589 11.6532C5.0948 12.6616 4.0614 12.9473 3.63922 12.9473C3.28267 12.9473 3.29302 12.6616 3.37331 12.4509L5.37539 7.19232L2.9874 7.26225C2.49703 7.27779 2.95891 6.32984 3.767 6.34452Z" fill="black"/>
</svg>
